<svg width="92" height="32" viewBox="0 0 92 32" fill="none" xmlns="http://www.w3.org/2000/svg">
<path fill-rule="evenodd" clip-rule="evenodd" d="M0 1.29524C0 0.563153 0.55329 0 1.28461 0H5.97258C6.7039 0 7.25707 0.563153 7.25707 1.29524V8.43785C9.01037 7.87471 10.7355 7.35846 13.3139 7.35846C20.0177 7.35846 24.5838 11.3944 24.5838 19.3254C24.5838 27.2564 20.0645 31.2359 11.2511 31.2359C7.17259 31.2359 2.23147 30.166 0 28.8707V1.29524ZM7.26634 25.6983C8.25082 25.9517 9.92919 26.1582 11.6825 26.1582C15.686 26.1582 17.1018 24.0558 17.1018 19.3254C17.1018 14.5949 15.686 12.4362 11.8231 12.4362C10.7543 12.4362 9.01965 12.7459 7.27573 13.2997V25.6983H7.26634ZM28.2713 2.42163C28.2713 0.919901 29.1339 0.00947186 30.6435 0.00947186H33.2688C34.7689 0.00947186 35.5752 0.919901 35.5752 2.42163V4.0172C35.5752 5.52831 34.7595 6.41996 33.2688 6.41996H30.6435C29.1339 6.41996 28.2713 5.51893 28.2713 4.0172V2.42163ZM29.6121 31.0765C28.8808 31.0765 28.3182 30.5227 28.3182 29.7906V9.87396C28.3182 9.13248 28.8808 8.57871 29.6121 8.57871H34.3001C35.0314 8.57871 35.5846 9.13248 35.5846 9.87396V29.7906C35.5846 30.5321 35.0314 31.0765 34.3001 31.0765H29.6121ZM39.2649 21.7094C39.2649 28.1669 42.2653 31.1703 48.2752 31.1703V31.1609C50.2254 31.1609 52.5788 30.992 53.8726 30.7292C54.604 30.5978 55.1571 30.0909 55.1571 29.4433V27.2095C55.1571 26.4681 54.604 25.9143 53.8726 25.9143H53.1038C52.6487 25.9143 52.2218 25.975 51.7782 26.038C51.2989 26.1062 50.8001 26.1771 50.2254 26.1771C48.0314 26.1771 46.5312 24.6284 46.5312 21.7V14.2759H52.6069C53.3476 14.2759 53.9008 13.7221 53.9008 12.99V10.0992C53.9008 9.3765 53.3476 8.81336 52.6069 8.81336H46.5312V1.30472C46.5312 0.572625 45.9687 0.00947186 45.2373 0.00947186H40.5494C39.8181 0.00947186 39.2649 0.572625 39.2649 1.30472V21.7094ZM63.7551 21.4559C64.0552 24.9005 65.546 26.4116 68.9776 26.4116C70.7309 26.4116 72.278 25.886 72.9905 24.9849C73.5343 24.2904 74.275 23.868 75.3157 23.868H78.3629C79.0755 23.868 79.6099 24.4218 79.6099 25.1539C79.6099 29.6309 75.1469 31.1796 68.4619 31.1796C61.0455 31.1796 56.5827 27.0404 56.5827 19.269C56.5827 11.4975 61.0924 7.30208 68.4619 7.30208C75.8314 7.30208 80.3506 11.3943 80.3506 18.9593V20.17C80.3506 20.9021 79.8162 21.4559 79.1037 21.4559H63.7551ZM63.7271 17.0164H73.1874C73.0561 13.7971 71.556 12.0701 68.4713 12.0701C65.3866 12.0701 63.8865 13.7971 63.7271 17.0164ZM84.0087 29.8464C84.0087 30.5785 84.5619 31.1323 85.3026 31.1323H89.9812C90.7031 31.1323 91.2657 30.5879 91.2657 29.8464V1.31355C91.2657 0.58146 90.7031 0.0183366 89.9812 0.0183366H85.3026C84.5619 0.0183366 84.0087 0.58146 84.0087 1.31355V29.8464Z" fill="#007687"/>
</svg>
