<svg width="130" height="139" viewBox="0 0 130 139" fill="none" xmlns="http://www.w3.org/2000/svg">
<path d="M21.0718 29.5327L0.332381 29.3673L28.7034 0.332017L28.5379 21.9013C28.3724 26.2149 25.0541 29.5327 21.0718 29.5327ZM82.2947 94.5717C88.5998 95.0693 96.0657 96.7289 98.0564 101.375C98.7195 102.867 99.2184 105.357 97.2266 108.675C96.3967 110.003 95.2359 110.666 93.7417 110.666C92.5798 110.666 88.9308 110.666 79.9708 99.5494H77.3158C76.1539 99.5494 75.4907 99.5494 75.1586 99.7149C65.2031 101.042 53.9214 104.693 44.2983 109.67C43.6351 110.832 43.1363 111.993 42.4731 112.988C42.3076 113.321 41.9755 113.818 41.6433 114.316C36.3334 123.607 30.527 132.069 25.3839 132.069C24.2219 132.069 22.729 131.737 21.4016 129.912C20.2396 128.419 19.9086 126.594 20.0741 124.769C20.904 119.626 26.7102 114.98 31.8547 111.496L32.0202 111.33C34.6752 109.505 37.6611 107.68 40.6482 106.02C44.7961 97.2267 48.4462 84.783 51.2668 73.6666H49.7738C42.8053 73.6666 37.1645 68.0258 37.1645 61.0573L37.1656 22.7308C37.1656 15.7624 42.8065 10.1215 49.7749 10.1215H111.827V8.62857C111.827 3.98293 107.845 0.167166 103.034 0.167166L33.5152 0.166009L33.3497 21.9007C33.3497 28.8691 27.7089 34.5099 20.906 34.5099L7.62939e-05 34.5111V129.747C7.62939e-05 134.392 3.98235 138.208 8.7936 138.208H111.661C111.827 133.895 111.827 103.366 111.993 73.1691H68.1917C72.5061 80.635 77.4823 88.2666 82.2947 94.5717ZM62.7161 73.0023H56.4122C54.0894 82.9579 51.1023 93.4097 47.6186 102.038L48.1163 101.872L47.9496 102.204C56.5775 98.3885 66.0341 95.7335 74.662 94.4062C74.9942 94.4062 75.4919 94.2407 75.9895 94.2407L75.824 93.9085H75.9895C71.3439 87.7688 66.8639 80.3026 62.7161 73.0023ZM94.0741 103.531C93.5765 102.369 91.2537 101.043 87.2713 100.213C90.7561 104.029 92.9121 105.356 93.742 105.523C94.0741 104.693 94.2408 104.03 94.0741 103.531ZM25.0536 125.1C25.0536 125.598 25.0536 125.93 25.3858 126.428C25.5513 126.76 25.7179 126.76 25.7179 126.76C26.8799 126.76 29.7002 125.1 36.3365 114.15C35.8389 114.483 35.3412 114.814 35.0091 115.146L34.8436 115.311C28.7026 119.293 25.3846 122.777 25.0536 125.1ZM129.28 24.0578V59.2319C129.28 63.8776 125.464 67.6933 120.819 67.6933L51.4351 67.6945C46.7895 67.6945 42.9737 63.8787 42.9737 59.2331L42.9725 24.059C42.9725 19.4133 46.7883 15.5976 51.4339 15.5976H120.983C125.63 15.5976 129.28 19.4133 129.28 24.059L129.28 24.0578Z" fill="#E3EAF2" fill-opacity="0.55"/>
</svg>
