<svg width="263" height="59" viewBox="0 0 263 59" fill="none" xmlns="http://www.w3.org/2000/svg">
<path d="M163.406 22.1406H160.578V20.0234H163.406C163.792 20.0234 164.104 19.9583 164.344 19.8281C164.583 19.6979 164.758 19.5182 164.867 19.2891C164.982 19.0547 165.039 18.7917 165.039 18.5C165.039 18.1875 164.982 17.8984 164.867 17.6328C164.758 17.3672 164.583 17.1536 164.344 16.9922C164.104 16.8255 163.792 16.7422 163.406 16.7422H161.609V26H158.867V14.625H163.406C164.318 14.625 165.102 14.7917 165.758 15.125C166.419 15.4583 166.927 15.9167 167.281 16.5C167.635 17.0781 167.812 17.7396 167.812 18.4844C167.812 19.2188 167.635 19.8594 167.281 20.4062C166.927 20.9531 166.419 21.3802 165.758 21.6875C165.102 21.9896 164.318 22.1406 163.406 22.1406ZM169.289 14.625H173.766C174.641 14.625 175.401 14.7552 176.047 15.0156C176.693 15.276 177.19 15.6615 177.539 16.1719C177.893 16.6823 178.07 17.3125 178.07 18.0625C178.07 18.7135 177.969 19.2578 177.766 19.6953C177.562 20.1328 177.279 20.4948 176.914 20.7812C176.555 21.0625 176.135 21.2943 175.656 21.4766L174.758 21.9844H171L170.984 19.8672H173.766C174.115 19.8672 174.404 19.8047 174.633 19.6797C174.862 19.5547 175.034 19.3776 175.148 19.1484C175.268 18.9141 175.328 18.6354 175.328 18.3125C175.328 17.9844 175.268 17.7031 175.148 17.4688C175.029 17.2344 174.852 17.0547 174.617 16.9297C174.388 16.8047 174.104 16.7422 173.766 16.7422H172.031V26H169.289V14.625ZM175.516 26L173 20.9688L175.906 20.9531L178.453 25.8828V26H175.516ZM189.352 20.0859V20.5469C189.352 21.4167 189.229 22.1979 188.984 22.8906C188.745 23.5781 188.404 24.1667 187.961 24.6562C187.518 25.1406 186.995 25.513 186.391 25.7734C185.786 26.0286 185.12 26.1562 184.391 26.1562C183.656 26.1562 182.984 26.0286 182.375 25.7734C181.771 25.513 181.245 25.1406 180.797 24.6562C180.354 24.1667 180.01 23.5781 179.766 22.8906C179.526 22.1979 179.406 21.4167 179.406 20.5469V20.0859C179.406 19.2161 179.526 18.4349 179.766 17.7422C180.01 17.0495 180.352 16.4609 180.789 15.9766C181.232 15.487 181.755 15.1146 182.359 14.8594C182.969 14.599 183.641 14.4688 184.375 14.4688C185.104 14.4688 185.771 14.599 186.375 14.8594C186.984 15.1146 187.51 15.487 187.953 15.9766C188.396 16.4609 188.74 17.0495 188.984 17.7422C189.229 18.4349 189.352 19.2161 189.352 20.0859ZM186.57 20.5469V20.0703C186.57 19.5078 186.521 19.013 186.422 18.5859C186.328 18.1536 186.188 17.7917 186 17.5C185.812 17.2083 185.581 16.9896 185.305 16.8438C185.034 16.6927 184.724 16.6172 184.375 16.6172C184.01 16.6172 183.693 16.6927 183.422 16.8438C183.151 16.9896 182.924 17.2083 182.742 17.5C182.56 17.7917 182.422 18.1536 182.328 18.5859C182.24 19.013 182.195 19.5078 182.195 20.0703V20.5469C182.195 21.1042 182.24 21.599 182.328 22.0312C182.422 22.4583 182.56 22.8203 182.742 23.1172C182.93 23.4141 183.159 23.638 183.43 23.7891C183.706 23.9401 184.026 24.0156 184.391 24.0156C184.74 24.0156 185.049 23.9401 185.32 23.7891C185.591 23.638 185.818 23.4141 186 23.1172C186.188 22.8203 186.328 22.4583 186.422 22.0312C186.521 21.599 186.57 21.1042 186.57 20.5469ZM197.242 22.1484H199.977C199.94 22.9401 199.727 23.638 199.336 24.2422C198.945 24.8464 198.404 25.3177 197.711 25.6562C197.023 25.9896 196.211 26.1562 195.273 26.1562C194.513 26.1562 193.833 26.0286 193.234 25.7734C192.641 25.5182 192.135 25.151 191.719 24.6719C191.307 24.1927 190.992 23.612 190.773 22.9297C190.56 22.2474 190.453 21.4792 190.453 20.625V20.0078C190.453 19.1536 190.565 18.3854 190.789 17.7031C191.018 17.0156 191.341 16.4323 191.758 15.9531C192.18 15.4688 192.685 15.099 193.273 14.8438C193.862 14.5885 194.516 14.4609 195.234 14.4609C196.224 14.4609 197.06 14.638 197.742 14.9922C198.424 15.3464 198.953 15.8333 199.328 16.4531C199.703 17.0677 199.924 17.7682 199.992 18.5547H197.258C197.247 18.1276 197.174 17.7708 197.039 17.4844C196.904 17.1927 196.69 16.974 196.398 16.8281C196.107 16.6823 195.719 16.6094 195.234 16.6094C194.896 16.6094 194.602 16.6719 194.352 16.7969C194.102 16.9219 193.893 17.1198 193.727 17.3906C193.56 17.6615 193.435 18.013 193.352 18.4453C193.273 18.8724 193.234 19.388 193.234 19.9922V20.625C193.234 21.2292 193.271 21.7448 193.344 22.1719C193.417 22.599 193.534 22.9479 193.695 23.2188C193.857 23.4896 194.065 23.6901 194.32 23.8203C194.581 23.9453 194.898 24.0078 195.273 24.0078C195.69 24.0078 196.042 23.9427 196.328 23.8125C196.615 23.6771 196.836 23.474 196.992 23.2031C197.148 22.9271 197.232 22.5755 197.242 22.1484ZM209.102 23.8906V26H203.039V23.8906H209.102ZM204.016 14.625V26H201.273V14.625H204.016ZM208.32 19.1406V21.1797H203.039V19.1406H208.32ZM209.125 14.625V16.7422H203.039V14.625H209.125ZM216.086 22.9766C216.086 22.7995 216.06 22.6406 216.008 22.5C215.956 22.3542 215.859 22.2188 215.719 22.0938C215.578 21.9688 215.375 21.8438 215.109 21.7188C214.849 21.5885 214.505 21.4531 214.078 21.3125C213.578 21.1458 213.096 20.9583 212.633 20.75C212.169 20.5365 211.755 20.2891 211.391 20.0078C211.026 19.7214 210.737 19.388 210.523 19.0078C210.31 18.6224 210.203 18.1745 210.203 17.6641C210.203 17.1745 210.312 16.7344 210.531 16.3438C210.75 15.9479 211.055 15.612 211.445 15.3359C211.841 15.0547 212.305 14.8411 212.836 14.6953C213.367 14.5443 213.948 14.4688 214.578 14.4688C215.411 14.4688 216.146 14.6146 216.781 14.9062C217.422 15.1927 217.922 15.6016 218.281 16.1328C218.646 16.6589 218.828 17.2812 218.828 18H216.102C216.102 17.7135 216.042 17.4609 215.922 17.2422C215.807 17.0234 215.633 16.8516 215.398 16.7266C215.164 16.6016 214.87 16.5391 214.516 16.5391C214.172 16.5391 213.883 16.5911 213.648 16.6953C213.414 16.7995 213.237 16.9401 213.117 17.1172C212.997 17.2891 212.938 17.4792 212.938 17.6875C212.938 17.8594 212.984 18.0156 213.078 18.1562C213.177 18.2917 213.315 18.4193 213.492 18.5391C213.674 18.6589 213.893 18.7734 214.148 18.8828C214.409 18.9922 214.701 19.099 215.023 19.2031C215.628 19.3958 216.164 19.612 216.633 19.8516C217.107 20.0859 217.505 20.3542 217.828 20.6562C218.156 20.9531 218.404 21.2917 218.57 21.6719C218.742 22.0521 218.828 22.4818 218.828 22.9609C218.828 23.4714 218.729 23.9245 218.531 24.3203C218.333 24.7161 218.049 25.0521 217.68 25.3281C217.31 25.599 216.867 25.8047 216.352 25.9453C215.836 26.0859 215.26 26.1562 214.625 26.1562C214.042 26.1562 213.466 26.0833 212.898 25.9375C212.336 25.7865 211.826 25.5573 211.367 25.25C210.909 24.9375 210.542 24.5391 210.266 24.0547C209.995 23.5651 209.859 22.9844 209.859 22.3125H212.609C212.609 22.6458 212.654 22.9271 212.742 23.1562C212.831 23.3854 212.961 23.5703 213.133 23.7109C213.305 23.8464 213.516 23.9453 213.766 24.0078C214.016 24.0651 214.302 24.0938 214.625 24.0938C214.974 24.0938 215.255 24.0443 215.469 23.9453C215.682 23.8411 215.839 23.7057 215.938 23.5391C216.036 23.3672 216.086 23.1797 216.086 22.9766ZM226.102 22.9766C226.102 22.7995 226.076 22.6406 226.023 22.5C225.971 22.3542 225.875 22.2188 225.734 22.0938C225.594 21.9688 225.391 21.8438 225.125 21.7188C224.865 21.5885 224.521 21.4531 224.094 21.3125C223.594 21.1458 223.112 20.9583 222.648 20.75C222.185 20.5365 221.771 20.2891 221.406 20.0078C221.042 19.7214 220.753 19.388 220.539 19.0078C220.326 18.6224 220.219 18.1745 220.219 17.6641C220.219 17.1745 220.328 16.7344 220.547 16.3438C220.766 15.9479 221.07 15.612 221.461 15.3359C221.857 15.0547 222.32 14.8411 222.852 14.6953C223.383 14.5443 223.964 14.4688 224.594 14.4688C225.427 14.4688 226.161 14.6146 226.797 14.9062C227.438 15.1927 227.938 15.6016 228.297 16.1328C228.661 16.6589 228.844 17.2812 228.844 18H226.117C226.117 17.7135 226.057 17.4609 225.938 17.2422C225.823 17.0234 225.648 16.8516 225.414 16.7266C225.18 16.6016 224.885 16.5391 224.531 16.5391C224.188 16.5391 223.898 16.5911 223.664 16.6953C223.43 16.7995 223.253 16.9401 223.133 17.1172C223.013 17.2891 222.953 17.4792 222.953 17.6875C222.953 17.8594 223 18.0156 223.094 18.1562C223.193 18.2917 223.331 18.4193 223.508 18.5391C223.69 18.6589 223.909 18.7734 224.164 18.8828C224.424 18.9922 224.716 19.099 225.039 19.2031C225.643 19.3958 226.18 19.612 226.648 19.8516C227.122 20.0859 227.521 20.3542 227.844 20.6562C228.172 20.9531 228.419 21.2917 228.586 21.6719C228.758 22.0521 228.844 22.4818 228.844 22.9609C228.844 23.4714 228.745 23.9245 228.547 24.3203C228.349 24.7161 228.065 25.0521 227.695 25.3281C227.326 25.599 226.883 25.8047 226.367 25.9453C225.852 26.0859 225.276 26.1562 224.641 26.1562C224.057 26.1562 223.482 26.0833 222.914 25.9375C222.352 25.7865 221.841 25.5573 221.383 25.25C220.924 24.9375 220.557 24.5391 220.281 24.0547C220.01 23.5651 219.875 22.9844 219.875 22.3125H222.625C222.625 22.6458 222.669 22.9271 222.758 23.1562C222.846 23.3854 222.977 23.5703 223.148 23.7109C223.32 23.8464 223.531 23.9453 223.781 24.0078C224.031 24.0651 224.318 24.0938 224.641 24.0938C224.99 24.0938 225.271 24.0443 225.484 23.9453C225.698 23.8411 225.854 23.7057 225.953 23.5391C226.052 23.3672 226.102 23.1797 226.102 22.9766ZM161.609 33.625V45H158.867V33.625H161.609ZM168.398 33.625L163.992 39.3906L161.414 42.2109L160.914 39.6953L162.562 37.1953L165.016 33.625H168.398ZM165.156 45L162.219 39.875L164.352 38.3047L168.398 45H165.156ZM178.602 33.625V45H175.867L171.844 37.9219V45H169.102V33.625H171.844L175.867 40.7031V33.625H178.602ZM189.961 39.0859V39.5469C189.961 40.4167 189.839 41.1979 189.594 41.8906C189.354 42.5781 189.013 43.1667 188.57 43.6562C188.128 44.1406 187.604 44.513 187 44.7734C186.396 45.0286 185.729 45.1562 185 45.1562C184.266 45.1562 183.594 45.0286 182.984 44.7734C182.38 44.513 181.854 44.1406 181.406 43.6562C180.964 43.1667 180.62 42.5781 180.375 41.8906C180.135 41.1979 180.016 40.4167 180.016 39.5469V39.0859C180.016 38.2161 180.135 37.4349 180.375 36.7422C180.62 36.0495 180.961 35.4609 181.398 34.9766C181.841 34.487 182.365 34.1146 182.969 33.8594C183.578 33.599 184.25 33.4688 184.984 33.4688C185.714 33.4688 186.38 33.599 186.984 33.8594C187.594 34.1146 188.12 34.487 188.562 34.9766C189.005 35.4609 189.349 36.0495 189.594 36.7422C189.839 37.4349 189.961 38.2161 189.961 39.0859ZM187.18 39.5469V39.0703C187.18 38.5078 187.13 38.013 187.031 37.5859C186.938 37.1536 186.797 36.7917 186.609 36.5C186.422 36.2083 186.19 35.9896 185.914 35.8438C185.643 35.6927 185.333 35.6172 184.984 35.6172C184.62 35.6172 184.302 35.6927 184.031 35.8438C183.76 35.9896 183.534 36.2083 183.352 36.5C183.169 36.7917 183.031 37.1536 182.938 37.5859C182.849 38.013 182.805 38.5078 182.805 39.0703V39.5469C182.805 40.1042 182.849 40.599 182.938 41.0312C183.031 41.4583 183.169 41.8203 183.352 42.1172C183.539 42.4141 183.768 42.638 184.039 42.7891C184.315 42.9401 184.635 43.0156 185 43.0156C185.349 43.0156 185.659 42.9401 185.93 42.7891C186.201 42.638 186.427 42.4141 186.609 42.1172C186.797 41.8203 186.938 41.4583 187.031 41.0312C187.13 40.599 187.18 40.1042 187.18 39.5469ZM194.008 43.9688L196.273 33.625H197.625L198.359 34.5078L195.945 45H194.453L194.008 43.9688ZM193.406 33.625L195.32 44.0469L194.828 45H193.102L190.688 33.625H193.406ZM199.602 43.9922L201.5 33.625H204.211L201.797 45H200.078L199.602 43.9922ZM198.602 33.625L200.922 44.0312L200.453 45H198.961L196.492 34.4922L197.258 33.625H198.602ZM212.805 42.8906V45H207.055V42.8906H212.805ZM208.031 33.625V45H205.289V33.625H208.031ZM221.789 42.8906V45H215.727V42.8906H221.789ZM216.703 33.625V45H213.961V33.625H216.703ZM221.008 38.1406V40.1797H215.727V38.1406H221.008ZM221.812 33.625V35.7422H215.727V33.625H221.812ZM226.609 45H224.086L224.102 42.8906H226.609C227.13 42.8906 227.57 42.7656 227.93 42.5156C228.294 42.2656 228.57 41.8932 228.758 41.3984C228.951 40.8984 229.047 40.2839 229.047 39.5547V39.0625C229.047 38.5156 228.992 38.0365 228.883 37.625C228.779 37.2083 228.622 36.862 228.414 36.5859C228.206 36.3047 227.945 36.0938 227.633 35.9531C227.326 35.8125 226.971 35.7422 226.57 35.7422H224.039V33.625H226.57C227.341 33.625 228.047 33.7578 228.688 34.0234C229.333 34.2839 229.891 34.6589 230.359 35.1484C230.833 35.6328 231.198 36.2083 231.453 36.875C231.714 37.5365 231.844 38.2708 231.844 39.0781V39.5547C231.844 40.3568 231.714 41.0911 231.453 41.7578C231.198 42.4245 230.836 43 230.367 43.4844C229.898 43.9688 229.344 44.3438 228.703 44.6094C228.068 44.8698 227.37 45 226.609 45ZM225.656 33.625V45H222.914V33.625H225.656ZM242.578 38.9219V43.5938C242.385 43.8073 242.089 44.0365 241.688 44.2812C241.292 44.5208 240.792 44.7266 240.188 44.8984C239.583 45.0703 238.872 45.1562 238.055 45.1562C237.299 45.1562 236.615 45.0365 236 44.7969C235.385 44.5521 234.857 44.1953 234.414 43.7266C233.977 43.2526 233.638 42.6745 233.398 41.9922C233.164 41.3047 233.047 40.5182 233.047 39.6328V39C233.047 38.1146 233.167 37.3281 233.406 36.6406C233.646 35.9531 233.982 35.375 234.414 34.9062C234.852 34.4323 235.365 34.0729 235.953 33.8281C236.547 33.5833 237.198 33.4609 237.906 33.4609C238.953 33.4609 239.805 33.6276 240.461 33.9609C241.117 34.2891 241.615 34.7448 241.953 35.3281C242.292 35.9062 242.497 36.5755 242.57 37.3359H239.938C239.885 36.9609 239.786 36.6432 239.641 36.3828C239.5 36.1172 239.297 35.9167 239.031 35.7812C238.766 35.6406 238.422 35.5703 238 35.5703C237.672 35.5703 237.372 35.6406 237.102 35.7812C236.836 35.9219 236.609 36.1354 236.422 36.4219C236.234 36.7031 236.089 37.0573 235.984 37.4844C235.885 37.9115 235.836 38.4115 235.836 38.9844V39.6328C235.836 40.2005 235.883 40.6979 235.977 41.125C236.076 41.5521 236.221 41.9089 236.414 42.1953C236.612 42.4766 236.862 42.6901 237.164 42.8359C237.471 42.9766 237.833 43.0469 238.25 43.0469C238.542 43.0469 238.792 43.0234 239 42.9766C239.208 42.9245 239.38 42.862 239.516 42.7891C239.656 42.7109 239.763 42.638 239.836 42.5703V40.8047H237.93V38.9219H242.578ZM252.008 42.8906V45H245.945V42.8906H252.008ZM246.922 33.625V45H244.18V33.625H246.922ZM251.227 38.1406V40.1797H245.945V38.1406H251.227ZM252.031 33.625V35.7422H245.945V33.625H252.031Z" fill="#2B3A4A"/>
<path fill-rule="evenodd" clip-rule="evenodd" d="M29.082 0C13.0207 0 0 13.0132 0 29.0654V58.13H29.082C45.1425 58.13 58.164 45.1167 58.164 29.0654C58.164 13.0132 45.1425 0 29.082 0Z" fill="#FFF101"/>
<path fill-rule="evenodd" clip-rule="evenodd" d="M36.2737 25.3999C39.5721 22.7208 40.0718 17.877 37.392 14.5804C35.8721 12.7116 33.6562 11.7418 31.4196 11.741H24.4204C24.4129 11.7401 24.4062 11.741 24.3987 11.741H24.3114V11.7418C22.6202 11.7509 20.9207 12.3135 19.5064 13.4628C17.6348 14.9826 16.6653 17.1989 16.6653 19.4342L16.6645 19.4334V30.0983C16.6645 30.0983 18.3083 27.3901 22.5246 27.1125V27.1142H24.0578C24.2724 27.1234 24.4877 27.1242 24.7031 27.1142H24.787H31.1178C32.9237 27.1857 34.7612 26.6281 36.2737 25.3999Z" fill="#056D7A"/>
<path fill-rule="evenodd" clip-rule="evenodd" d="M38.4863 44.7678C42.1231 41.8136 42.6752 36.4729 39.7193 32.8381C38.0439 30.7773 35.5994 29.7086 33.1342 29.707H32.9304H25.2128H25.1887H25.0931V29.7086C23.2273 29.7186 21.3549 30.3394 19.795 31.6058C17.7313 33.2819 16.6621 35.7258 16.6621 38.1905L16.6613 38.1897V49.9481C16.6613 49.9481 18.473 46.9624 23.1225 46.6558V46.6583H24.8129C25.0499 46.6682 25.2868 46.6691 25.5246 46.6583H25.6169H32.8016C34.7929 46.7372 36.8184 46.1223 38.4863 44.7678Z" fill="#056D7A"/>
<path fill-rule="evenodd" clip-rule="evenodd" d="M70.6493 38.4129C71.549 38.6439 73.073 38.8342 74.6703 38.8342C78.3146 38.8342 79.5992 36.9212 79.5992 32.6267C79.5992 28.2848 78.3146 26.3677 74.79 26.3677C73.8139 26.3677 72.2424 26.6461 70.6493 27.1488V38.4129ZM64.0375 16.2372C64.0375 15.574 64.5431 15.063 65.2107 15.063H69.4761C70.1396 15.063 70.6493 15.574 70.6493 16.2372V22.7322C72.2424 22.2203 73.8139 21.7541 76.1602 21.7541C82.2623 21.7541 86.4163 25.4262 86.4163 32.6267C86.4163 39.7782 82.3014 43.452 74.2803 43.452C70.5678 43.452 66.0671 42.4764 64.0375 41.3039V16.2372Z" fill="#056D7A"/>
<path fill-rule="evenodd" clip-rule="evenodd" d="M90.9917 43.2941C90.3232 43.2941 89.8135 42.7913 89.8135 42.1216V24.0235C89.8135 23.3529 90.3232 22.846 90.9917 22.846H95.2562C95.9206 22.846 96.4253 23.3529 96.4253 24.0235V42.1216C96.4253 42.7913 95.9206 43.2941 95.2562 43.2941H90.9917ZM89.7694 17.2535C89.7694 15.8865 90.5585 15.063 91.9295 15.063H94.3192C95.6811 15.063 96.4219 15.8865 96.4219 17.2535V18.7035C96.4219 20.073 95.6811 20.889 94.3192 20.889H91.9295C90.5585 20.889 89.7694 20.073 89.7694 18.7035V17.2535Z" fill="#056D7A"/>
<path fill-rule="evenodd" clip-rule="evenodd" d="M107.99 43.3825C102.521 43.3825 99.7855 40.6502 99.7855 34.7801V16.2375C99.7855 15.5744 100.286 15.0625 100.954 15.0625H105.219C105.888 15.0625 106.396 15.5744 106.396 16.2375V23.0641H111.93C112.607 23.0641 113.108 23.5759 113.108 24.2366V26.8667C113.108 27.5306 112.607 28.0375 111.93 28.0375H106.396V34.7801C106.396 37.4426 107.758 38.8503 109.762 38.8503C110.768 38.8503 111.518 38.6151 112.383 38.6151H113.081C113.749 38.6151 114.254 39.122 114.254 39.7893V41.8211C114.254 42.4069 113.749 42.869 113.081 42.9928C111.903 43.2304 109.762 43.3825 107.99 43.3825Z" fill="#056D7A"/>
<path fill-rule="evenodd" clip-rule="evenodd" d="M122.039 30.5237H130.659C130.543 27.5945 129.176 26.0248 126.362 26.0248C123.636 26.0248 122.19 27.5945 122.039 30.5237ZM122.073 34.5548C122.343 37.6827 123.706 39.0571 126.823 39.0571C128.419 39.0571 129.824 38.5818 130.472 37.76C130.967 37.1334 131.644 36.7487 132.591 36.7487H135.367C136.02 36.7487 136.507 37.2514 136.507 37.9162C136.507 41.9822 132.447 43.3899 126.362 43.3899C119.608 43.3899 115.548 39.6305 115.548 32.5646C115.548 25.527 119.65 21.692 126.362 21.692C133.128 21.692 137.188 25.4115 137.188 32.2871V33.3865C137.188 34.0479 136.702 34.5548 136.053 34.5548H122.073Z" fill="#056D7A"/>
<path fill-rule="evenodd" clip-rule="evenodd" d="M141.685 43.3513C141.012 43.3513 140.507 42.8485 140.507 42.1787V16.2453C140.507 15.5822 141.012 15.0703 141.685 15.0703H145.946C146.6 15.0703 147.114 15.5822 147.114 16.2453V42.1787C147.114 42.8485 146.6 43.3513 145.946 43.3513H141.685Z" fill="#056D7A"/>
</svg>
